<svg width="24" height="24" viewBox="0 0 24 24" fill="none" xmlns="http://www.w3.org/2000/svg">
<path d="M 10.5 20.25 C 10.5 20.664 10.1642 21 9.75 21 C 9.3358 21 9 20.664 9 20.25 C 9 19.836 9.3358 19.5 9.75 19.5 C 10.1642 19.5 10.5 19.836 10.5 20.25 Z" stroke="#1CB4BF" stroke-width="1.5" stroke-linecap="round" stroke-linejoin="round" />
<path d="M 19 20.25 C 19 20.664 18.6642 21 18.25 21 C 17.8358 21 17.5 20.664 17.5 20.25 C 17.5 19.836 17.8358 19.5 18.25 19.5 C 18.6642 19.5 19 19.836 19 20.25 Z" stroke="#1CB4BF" stroke-width="1.5" stroke-linecap="round" stroke-linejoin="round" />
<path d="M 2 3 H 2.2066 C 3.5312 3 4.1935 3 4.6255 3.402 C 5.0575 3.804 5.1046 4.465 5.199 5.786 L 5.4503 9.305 C 5.5924 11.294 5.6634 12.288 5.9648 13.096 C 6.6253 14.868 8.0823 16.224 9.8965 16.757 C 10.7241 17 11.7267 17 13.7317 17 C 15.8373 17 16.89 17 17.7417 16.742 C 19.6593 16.16 21.1599 14.659 21.7416 12.742 C 21.9426 12.079 21.9872 11.299 21.9972 10 M 12.5 6 H 5.5" stroke="#1CB4BF" stroke-width="1.5" stroke-linecap="round" stroke-linejoin="round" />
<path d="M 16 6 H 22 M 19 9 V 3" stroke="#1CB4BF" stroke-width="1.5" stroke-linecap="round" stroke-linejoin="round" />
</svg>