<svg width="24" height="24" viewBox="0 0 24 24" fill="none" xmlns="http://www.w3.org/2000/svg">
<path d="M 4 11 V 15 C 4 18.3 4 19.95 5.0251 20.975 C 6.0502 22 7.7002 22 11 22 H 13 C 16.2998 22 17.9497 22 18.9749 20.975 C 20 19.95 20 18.3 20 15 V 11" stroke="#1CB4BF" stroke-width="1.5" stroke-linecap="round" stroke-linejoin="round" />
<path d="M 3 9 C 3 8.252 3 7.878 3.201 7.6 C 3.3326 7.418 3.522 7.266 3.75 7.161 C 4.0981 7 4.5654 7 5.5 7 H 18.5 C 19.4346 7 19.9019 7 20.25 7.161 C 20.478 7.266 20.6674 7.418 20.799 7.6 C 21 7.878 21 8.252 21 9 C 21 9.748 21 10.121 20.799 10.4 C 20.6674 10.582 20.478 10.734 20.25 10.839 C 19.9019 11 19.4346 11 18.5 11 H 5.5 C 4.5654 11 4.0981 11 3.75 10.839 C 3.522 10.734 3.3326 10.582 3.201 10.4 C 3 10.121 3 9.748 3 9 Z" stroke="#1CB4BF" stroke-width="1.5" stroke-linejoin="round" />
<path d="M 6 3.786 C 6 2.799 6.7995 2 7.7857 2 H 8.1429 C 10.2731 2 12 3.727 12 5.857 V 7 H 9.2143 C 7.4391 7 6 5.561 6 3.786 Z" stroke="#1CB4BF" stroke-width="1.5" stroke-linejoin="round" />
<path d="M 18 3.786 C 18 2.799 17.2005 2 16.2143 2 H 15.8571 C 13.7269 2 12 3.727 12 5.857 V 7 H 14.7857 C 16.5609 7 18 5.561 18 3.786 Z" stroke="#1CB4BF" stroke-width="1.5" stroke-linejoin="round" />
<path d="M 12 11 V 22" stroke="#1CB4BF" stroke-width="1.5" stroke-linecap="round" stroke-linejoin="round" />
</svg>