<svg width="24" height="24" viewBox="0 0 24 24" fill="none" xmlns="http://www.w3.org/2000/svg">
<path d="M 7 9 V 15" stroke="#1CB4BF" stroke-width="1.5" stroke-linecap="round" stroke-linejoin="round" />
<path d="M 7 9 H 6 C 5.0681 9 4.6022 9 4.2346 9.152 C 3.7446 9.355 3.3552 9.745 3.1522 10.235 C 3 10.602 3 11.068 3 12 C 3 12.932 3 13.398 3.1522 13.765 C 3.3552 14.255 3.7446 14.645 4.2346 14.848 C 4.6022 15 5.0681 15 6 15 H 7 L 15.0796 17.424 C 16.0291 17.709 16.5039 17.851 16.9257 18.101 L 16.9459 18.114 C 17.3663 18.366 17.7167 18.717 18.4177 19.418 L 18.5858 19.586 C 18.7051 19.705 18.7647 19.765 18.831 19.812 C 18.9561 19.902 19.1003 19.962 19.2523 19.987 C 19.3327 20 19.4171 20 19.5858 20 C 19.9713 20 20.1641 20 20.3196 19.948 C 20.6155 19.848 20.8477 19.615 20.9475 19.32 C 21 19.164 21 18.971 21 18.586 V 5.414 C 21 5.029 21 4.836 20.9475 4.68 C 20.8477 4.385 20.6155 4.152 20.3196 4.052 C 20.1641 4 19.9713 4 19.5858 4 C 19.4171 4 19.3327 4 19.2523 4.013 C 19.1003 4.038 18.9561 4.098 18.831 4.188 C 18.7647 4.235 18.7051 4.295 18.5858 4.414 L 18.4177 4.582 C 17.7167 5.283 17.3663 5.634 16.9459 5.886 L 16.9257 5.899 C 16.5039 6.149 16.0291 6.291 15.0796 6.576 L 7 9 Z" stroke="#1CB4BF" stroke-width="1.5" stroke-linecap="round" stroke-linejoin="round" />
<path d="M 8 15.5 V 18.046 C 8 19.125 8.8749 20 9.9542 20 C 10.6075 20 11.2177 19.674 11.5801 19.13 L 13 17" stroke="#1CB4BF" stroke-width="1.5" stroke-linecap="round" stroke-linejoin="round" />
</svg>