<svg width="25" height="25" viewBox="0 0 25 25" fill="none" xmlns="http://www.w3.org/2000/svg">
<path d="M14.5834 3.125H10.4167C6.48833 3.125 4.52416 3.125 3.30376 4.34539C2.08337 5.56578 2.08337 7.52996 2.08337 11.4583C2.08337 15.3867 2.08337 17.3509 3.30376 18.5712C4.52416 19.7917 6.48833 19.7917 10.4167 19.7917H14.5834C18.5117 19.7917 20.476 19.7917 21.6963 18.5712C22.9167 17.3509 22.9167 15.3867 22.9167 11.4583C22.9167 7.52996 22.9167 5.56578 21.6963 4.34539C20.476 3.125 18.5117 3.125 14.5834 3.125Z" stroke="#1CB4BF" stroke-width="1.5" stroke-linecap="round"/>
<path d="M17.6042 16.1458C17.6042 15.2253 18.3503 14.4792 19.2708 14.4792M14.2708 16.1458C14.2708 13.3844 16.5094 11.1458 19.2708 11.1458M10.9375 16.1458C10.9375 11.5434 14.6684 7.8125 19.2708 7.8125" stroke="#1CB4BF" stroke-width="1.5" stroke-linecap="round"/>
<path d="M18.75 19.7917L19.7917 21.875" stroke="#1CB4BF" stroke-width="1.5" stroke-linecap="round" stroke-linejoin="round"/>
<path d="M6.25004 19.7917L5.20837 21.875" stroke="#1CB4BF" stroke-width="1.5" stroke-linecap="round" stroke-linejoin="round"/>
</svg>
