<svg width="17" height="17" viewBox="0 0 17 17" fill="none" xmlns="http://www.w3.org/2000/svg">
<path d="M8.5 15.5834C7.92044 15.5834 7.36681 15.3502 6.25949 14.8837C3.50316 13.7228 2.125 13.1424 2.125 12.1659V5.34251M8.5 15.5834C9.07956 15.5834 9.63319 15.3502 10.7405 14.8837C13.4969 13.7228 14.875 13.1424 14.875 12.1659V5.34251M8.5 15.5834V8.5207M2.125 5.34251C2.125 5.77632 2.69278 6.05026 3.82834 6.59815L5.89753 7.59647C7.17457 8.21265 7.81313 8.5207 8.5 8.5207M2.125 5.34251C2.125 4.9087 2.69278 4.63477 3.82834 4.08688L4.95833 3.54169M14.875 5.34251C14.875 5.77632 14.3072 6.05026 13.1717 6.59815L11.1025 7.59647C9.82543 8.21265 9.18687 8.5207 8.5 8.5207M14.875 5.34251C14.875 4.9087 14.3072 4.63476 13.1717 4.08688L12.0417 3.54169M4.25 9.22698L5.66667 9.93326" stroke="#CFCFD4" stroke-linecap="round" stroke-linejoin="round"/>
<path d="M7.08334 1.41669L8.50001 2.83335M8.50001 2.83335L9.91668 4.25002M8.50001 2.83335L7.08334 4.25002M8.50001 2.83335L9.91668 1.41669" stroke="#CFCFD4" stroke-linecap="round"/>
</svg>
